<?xml version="1.0" encoding="UTF-8" standalone="no"?>
<!-- Created with Inkscape (http://www.inkscape.org/) -->

<svg
   width="810.80054"
   height="213.00662"
   viewBox="0 0 810.80054 213.00662"
   version="1.1"
   id="svg1"
   inkscape:export-filename="dialog2svg"
   inkscape:export-xdpi="96"
   inkscape:export-ydpi="96"
   xmlns:inkscape="http://www.inkscape.org/namespaces/inkscape"
   xmlns:sodipodi="http://sodipodi.sourceforge.net/DTD/sodipodi-0.dtd"
   xmlns:xlink="http://www.w3.org/1999/xlink"
   xmlns="http://www.w3.org/2000/svg"
   xmlns:svg="http://www.w3.org/2000/svg">
  <sodipodi:namedview
     id="namedview1"
     pagecolor="#505050"
     bordercolor="#ffffff"
     borderopacity="1"
     inkscape:showpageshadow="0"
     inkscape:pageopacity="0"
     inkscape:pagecheckerboard="1"
     inkscape:deskcolor="#505050"
     inkscape:document-units="px" />
  <defs
     id="defs1">
    <pattern
       inkscape:collect="always"
       xlink:href="#Strips1_1"
       preserveAspectRatio="xMidYMid"
       id="pattern105"
       patternTransform="matrix(0,2,-2,0,0,0)"
       x="0"
       y="0" />
    <pattern
       inkscape:collect="always"
       patternUnits="userSpaceOnUse"
       width="2"
       height="10"
       patternTransform="translate(0,0) scale(2,2)"
       preserveAspectRatio="xMidYMid"
       id="Strips1_1"
       style="fill:#000000"
       inkscape:stockid="Stripes 01 (1:1)"
       inkscape:isstock="true"
       inkscape:label="Stripes 01 (1:1)">
      <rect
   style="stroke:none"
   x="0"
   y="-0.5"
   width="1"
   height="11"
   id="rect134" />

    </pattern>
    <linearGradient
       id="linearGradient99"
       inkscape:collect="always">
      <stop
         style="stop-color:#000000;stop-opacity:1;"
         offset="0"
         id="stop99" />
      <stop
         style="stop-color:#000000;stop-opacity:1;"
         offset="1"
         id="stop100" />
    </linearGradient>
    <linearGradient
       id="linearGradient95"
       inkscape:collect="always">
      <stop
         style="stop-color:#f6f7fe;stop-opacity:0;"
         offset="0"
         id="stop96" />
      <stop
         style="stop-color:#ffffff;stop-opacity:0.765625;"
         offset="1"
         id="stop97" />
    </linearGradient>
    <linearGradient
       id="swatch6"
       inkscape:swatch="solid">
      <stop
         style="stop-color:#152ec6;stop-opacity:1;"
         offset="0"
         id="stop6" />
    </linearGradient>
    <linearGradient
       id="swatch5"
       inkscape:swatch="solid">
      <stop
         style="stop-color:#33bbc6;stop-opacity:0;"
         offset="0"
         id="stop5" />
    </linearGradient>
    <filter
       inkscape:label="Metallized Paint"
       inkscape:menu="Materials"
       inkscape:menu-tooltip="Metallized effect with a soft lighting, slightly translucent at the edges"
       style="color-interpolation-filters:sRGB"
       id="filter27"
       x="-0.034459258"
       y="-0.1370674"
       width="1.0689185"
       height="1.2741348">
      <feGaussianBlur
         stdDeviation="1"
         result="result1"
         id="feGaussianBlur22" />
      <feComposite
         in="result1"
         in2="result1"
         result="result4"
         operator="in"
         id="feComposite22" />
      <feBlend
         in="result1"
         mode="screen"
         result="result5"
         in2="result4"
         id="feBlend22" />
      <feGaussianBlur
         stdDeviation="8"
         result="result6"
         in="result5"
         id="feGaussianBlur23" />
      <feComposite
         operator="atop"
         in="result6"
         in2="result5"
         result="result8"
         id="feComposite23" />
      <feComposite
         operator="in"
         result="fbSourceGraphic"
         in="result6"
         in2="result8"
         id="feComposite24" />
      <feGaussianBlur
         result="result0"
         in="fbSourceGraphic"
         stdDeviation="2.5"
         id="feGaussianBlur24" />
      <feSpecularLighting
         specularExponent="45"
         specularConstant="1.5"
         surfaceScale="1"
         lighting-color="#ffffff"
         result="result1"
         in="result0"
         id="feSpecularLighting24">
        <fePointLight
           z="21000"
           y="-9000"
           x="-6000"
           id="fePointLight24" />
      </feSpecularLighting>
      <feComposite
         operator="in"
         result="result2"
         in="result1"
         in2="fbSourceGraphic"
         id="feComposite25" />
      <feComposite
         k3="1"
         k2="1"
         operator="arithmetic"
         result="result4"
         in="fbSourceGraphic"
         in2="result2"
         id="feComposite26"
         k1="0"
         k4="0" />
      <feComposite
         operator="in"
         in="result9"
         in2="result4"
         result="result91"
         id="feComposite27" />
      <feBlend
         mode="multiply"
         in2="result91"
         id="feBlend27" />
    </filter>
    <clipPath
       clipPathUnits="userSpaceOnUse"
       id="clipPath79">
      <path
         id="path80"
         style="fill:#ff0000;fill-opacity:1;fill-rule:nonzero;stroke:none"
         d="M 27.970703,55.25 V 91.306641 H 768.45508 c -0.16435,-0.228406 -0.35337,-0.484969 -0.58985,-0.78711 0.0371,-0.07984 0.0682,-0.163339 0.10352,-0.24414 -0.52419,-0.07472 -1.03576,-0.151625 -1.38867,-0.21875 -0.47289,-0.08995 -1.13188,0.07637 -1.41016,-0.316407 -0.9335,-1.317627 -1.3033,-2.954226 -1.95508,-4.43164 0.5789,-0.452857 1.11907,-0.961196 1.72657,-1.373047 -0.57286,0.03032 -1.14813,0.05014 -1.39258,0.01563 -0.67678,-0.09555 -1.71993,0.140597 -1.99219,-0.486328 -1.61178,-3.711438 -1.59395,-4.659051 0.68359,-5.689453 0.34195,-0.154701 0.71372,-0.234549 1.07032,-0.351563 1.11211,-0.28036 1.56418,-0.405968 2.72656,-0.644531 2.45407,-0.503666 4.9457,-0.855341 7.45508,-0.869141 0.60652,0.02565 1.21572,0.02332 1.82031,0.07813 0.80227,0.07272 1.42388,0.175621 2.09961,0.34375 v -7.904297 c -0.0542,0.134511 -0.10518,0.270184 -0.16016,0.404297 -0.0407,0.11018 -0.0762,0.218532 -0.11523,0.330078 -1.92504,5.500123 -6.68579,5.000222 -7.33789,1.109375 -0.53293,-0.08458 -1.05896,-0.208279 -1.57813,-0.359375 -0.73013,-0.230982 -1.41081,-0.608925 -1.98632,-1.115234 -0.12432,-0.109359 -0.25322,-0.216159 -0.36329,-0.339844 -0.19244,-0.216244 -0.36205,-0.451759 -0.54297,-0.677734 -0.15234,-0.30681 -0.34698,-0.597463 -0.45703,-0.921875 -0.14836,-0.437383 -0.22325,-0.865587 -0.23828,-1.291016 -2.3263,-0.08147 -4.32775,0.888145 -1.09961,-1.814453 0.60655,-0.507794 1.31294,-0.850697 2.06055,-1.083984 0.12604,-0.148764 0.26285,-0.305102 0.43164,-0.507813 0.24401,-0.188684 0.47206,-0.401012 0.73242,-0.566406 0.75075,-0.476921 1.63976,-0.714843 2.51563,-0.814453 0.1789,-0.02034 0.35954,-0.02722 0.53906,-0.04102 0.15625,-0.0063 0.31244,-0.0118 0.46875,-0.01367 0.28005,-0.0033 0.55994,-9.86e-4 0.83984,0.0039 0.002,-0.79644 -0.0286,-1.593348 0.0254,-2.388672 0.0303,-0.388473 0.10377,-0.771172 0.14649,-1.158203 -0.1459,-0.64213 -0.28578,-1.285843 -0.41407,-1.931642 z M 774.35547,83.103516 c 0.12382,0.0762 0.26591,0.123889 0.40625,0.162109 0.0317,0.0086 0.11028,-0.03122 0.084,-0.05078 -0.0966,-0.0717 -0.29889,-0.09825 -0.49023,-0.111328 z m -9.76367,0.115234 c -0.15349,0.05789 -0.30678,0.11694 -0.46485,0.160156 -0.15626,0.04273 0.40262,-0.0079 0.46485,-0.160156 z m 7.49218,7.578125 c 0.0771,0.173931 0.14259,0.341886 0.20899,0.509766 h 0.74609 c 0.0641,-0.123452 0.12891,-0.246704 0.19141,-0.371094 -0.007,-8.32e-4 -0.0324,-0.0031 -0.0391,-0.0039 -0.36387,-0.04291 -0.73607,-0.09096 -1.10743,-0.134766 z m 3.28907,0.400391 c 0.004,0.0099 0.008,0.01941 0.0117,0.0293 0.006,0.01787 0.0714,-0.01828 0.0527,-0.02148 -0.0139,-0.0024 -0.0493,-0.0054 -0.0644,-0.0078 z m 2.03906,0.0098 c -0.0825,0.03353 -0.16185,0.06871 -0.24805,0.09961 h 0.24805 z" />
    </clipPath>
    <clipPath
       clipPathUnits="userSpaceOnUse"
       id="clipPath79-0">
      <path
         id="path80-2"
         style="fill:#ff0000;fill-opacity:1;fill-rule:nonzero;stroke:none"
         d="M 27.970703,55.25 V 91.306641 H 768.45508 c -0.16435,-0.228406 -0.35337,-0.484969 -0.58985,-0.78711 0.0371,-0.07984 0.0682,-0.163339 0.10352,-0.24414 -0.52419,-0.07472 -1.03576,-0.151625 -1.38867,-0.21875 -0.47289,-0.08995 -1.13188,0.07637 -1.41016,-0.316407 -0.9335,-1.317627 -1.3033,-2.954226 -1.95508,-4.43164 0.5789,-0.452857 1.11907,-0.961196 1.72657,-1.373047 -0.57286,0.03032 -1.14813,0.05014 -1.39258,0.01563 -0.67678,-0.09555 -1.71993,0.140597 -1.99219,-0.486328 -1.61178,-3.711438 -1.59395,-4.659051 0.68359,-5.689453 0.34195,-0.154701 0.71372,-0.234549 1.07032,-0.351563 1.11211,-0.28036 1.56418,-0.405968 2.72656,-0.644531 2.45407,-0.503666 4.9457,-0.855341 7.45508,-0.869141 0.60652,0.02565 1.21572,0.02332 1.82031,0.07813 0.80227,0.07272 1.42388,0.175621 2.09961,0.34375 v -7.904297 c -0.0542,0.134511 -0.10518,0.270184 -0.16016,0.404297 -0.0407,0.11018 -0.0762,0.218532 -0.11523,0.330078 -1.92504,5.500123 -6.68579,5.000222 -7.33789,1.109375 -0.53293,-0.08458 -1.05896,-0.208279 -1.57813,-0.359375 -0.73013,-0.230982 -1.41081,-0.608925 -1.98632,-1.115234 -0.12432,-0.109359 -0.25322,-0.216159 -0.36329,-0.339844 -0.19244,-0.216244 -0.36205,-0.451759 -0.54297,-0.677734 -0.15234,-0.30681 -0.34698,-0.597463 -0.45703,-0.921875 -0.14836,-0.437383 -0.22325,-0.865587 -0.23828,-1.291016 -2.3263,-0.08147 -4.32775,0.888145 -1.09961,-1.814453 0.60655,-0.507794 1.31294,-0.850697 2.06055,-1.083984 0.12604,-0.148764 0.26285,-0.305102 0.43164,-0.507813 0.24401,-0.188684 0.47206,-0.401012 0.73242,-0.566406 0.75075,-0.476921 1.63976,-0.714843 2.51563,-0.814453 0.1789,-0.02034 0.35954,-0.02722 0.53906,-0.04102 0.15625,-0.0063 0.31244,-0.0118 0.46875,-0.01367 0.28005,-0.0033 0.55994,-9.86e-4 0.83984,0.0039 0.002,-0.79644 -0.0286,-1.593348 0.0254,-2.388672 0.0303,-0.388473 0.10377,-0.771172 0.14649,-1.158203 -0.1459,-0.64213 -0.28578,-1.285843 -0.41407,-1.931642 z M 774.35547,83.103516 c 0.12382,0.0762 0.26591,0.123889 0.40625,0.162109 0.0317,0.0086 0.11028,-0.03122 0.084,-0.05078 -0.0966,-0.0717 -0.29889,-0.09825 -0.49023,-0.111328 z m -9.76367,0.115234 c -0.15349,0.05789 -0.30678,0.11694 -0.46485,0.160156 -0.15626,0.04273 0.40262,-0.0079 0.46485,-0.160156 z m 7.49218,7.578125 c 0.0771,0.173931 0.14259,0.341886 0.20899,0.509766 h 0.74609 c 0.0641,-0.123452 0.12891,-0.246704 0.19141,-0.371094 -0.007,-8.32e-4 -0.0324,-0.0031 -0.0391,-0.0039 -0.36387,-0.04291 -0.73607,-0.09096 -1.10743,-0.134766 z m 3.28907,0.400391 c 0.004,0.0099 0.008,0.01941 0.0117,0.0293 0.006,0.01787 0.0714,-0.01828 0.0527,-0.02148 -0.0139,-0.0024 -0.0493,-0.0054 -0.0644,-0.0078 z m 2.03906,0.0098 c -0.0825,0.03353 -0.16185,0.06871 -0.24805,0.09961 h 0.24805 z" />
    </clipPath>
    <filter
       inkscape:label="Metallized Paint"
       inkscape:menu="Materials"
       inkscape:menu-tooltip="Metallized effect with a soft lighting, slightly translucent at the edges"
       style="color-interpolation-filters:sRGB"
       id="filter90"
       x="-0.037579071"
       y="-0.7793293"
       width="1.0750737"
       height="2.5649989">
      <feGaussianBlur
         stdDeviation="1"
         result="result1"
         id="feGaussianBlur85" />
      <feComposite
         in="result1"
         in2="result1"
         result="result4"
         operator="in"
         id="feComposite85" />
      <feBlend
         in="result1"
         mode="screen"
         result="result5"
         in2="result4"
         id="feBlend85" />
      <feGaussianBlur
         stdDeviation="8"
         result="result6"
         in="result5"
         id="feGaussianBlur86" />
      <feComposite
         operator="atop"
         in="result6"
         in2="result5"
         result="result8"
         id="feComposite86" />
      <feComposite
         operator="in"
         result="fbSourceGraphic"
         in="result6"
         in2="result8"
         id="feComposite87" />
      <feGaussianBlur
         result="result0"
         in="fbSourceGraphic"
         stdDeviation="2.5"
         id="feGaussianBlur87" />
      <feSpecularLighting
         specularExponent="45"
         specularConstant="1.5"
         surfaceScale="1"
         lighting-color="#ffffff"
         result="result1"
         in="result0"
         id="feSpecularLighting87">
        <fePointLight
           z="21000"
           y="-9000"
           x="-6000"
           id="fePointLight87" />
      </feSpecularLighting>
      <feComposite
         operator="in"
         result="result2"
         in="result1"
         in2="fbSourceGraphic"
         id="feComposite88" />
      <feComposite
         k3="1"
         k2="1"
         operator="arithmetic"
         result="result4"
         in="fbSourceGraphic"
         in2="result2"
         id="feComposite89"
         k1="0"
         k4="0" />
      <feComposite
         operator="in"
         in="result9"
         in2="result4"
         result="result91"
         id="feComposite90" />
      <feBlend
         mode="multiply"
         in2="result91"
         id="feBlend90" />
    </filter>
    <linearGradient
       inkscape:collect="always"
       xlink:href="#linearGradient95"
       id="linearGradient97"
       x1="419.83826"
       y1="217.40401"
       x2="413.02243"
       y2="3.5777445"
       gradientUnits="userSpaceOnUse" />
    <linearGradient
       inkscape:collect="always"
       xlink:href="#linearGradient99"
       id="linearGradient100"
       x1="419.83826"
       y1="217.40401"
       x2="413.02243"
       y2="3.5777445"
       gradientUnits="userSpaceOnUse" />
    <filter
       inkscape:collect="always"
       style="color-interpolation-filters:sRGB"
       id="filter105"
       x="-0.011830243"
       y="-0.075291046"
       width="1.0236605"
       height="1.1505821">
      <feGaussianBlur
         inkscape:collect="always"
         stdDeviation="3.6727341"
         id="feGaussianBlur105" />
    </filter>
  </defs>
  <g
     inkscape:label="Layer 1"
     inkscape:groupmode="layer"
     id="layer1"
     transform="translate(5.2096262,4.1769218)">
    <g
       id="g105"
       style="display:inline;opacity:1">
      <path
         style="color:#000000;display:inline;opacity:1;fill:#0d1c7c;fill-opacity:0.542929;fill-rule:evenodd;stroke-width:0.883603;-inkscape-stroke:none"
         d="m 26.936804,16.863411 c -3.198584,0 -5.892209,2.351454 -5.892209,5.143724 V 177.95711 c 0,2.79227 2.693625,5.14373 5.892209,5.14373 H 772.61338 c 3.19858,0 5.8922,-2.35146 5.8922,-5.14373 V 22.007135 c 0,-2.79227 -2.69362,-5.143724 -5.8922,-5.143724 z m 1.673461,6.604606 H 770.93991 V 176.49623 H 28.610265 Z"
         id="path9" />
      <path
         id="path9-9"
         style="color:#000000;display:inline;opacity:1;fill:#0d1c7c;fill-opacity:0.542929;fill-rule:evenodd;stroke-width:0.774654;-inkscape-stroke:none"
         d="m 28.091797,55.25 c 0.0016,0.01957 0.0043,0.03902 0.0059,0.05859 0.06291,1.266966 0.111736,2.536596 -0.002,3.802734 -0.033,0.406466 -0.07668,0.812476 -0.125,1.216797 H 769.8457 v 7.621094 c 2.45747,-1.64238 4.96493,-3.192683 7.56641,-4.572266 v -4.171875 c 0,-2.146132 -2.694,-3.955078 -5.89258,-3.955078 z M 770.97656,76.625 c -0.3674,0.217919 -0.75667,0.406524 -1.13086,0.615234 v 14.066407 c 7.25631,-2.797224 9.717,-7.075999 1.13868,-14.681641 -0.003,1.5e-5 -0.005,-1.5e-5 -0.008,0 z"
         clip-path="url(#clipPath79)" />
      <path
         id="path9-9-2"
         style="color:#000000;display:inline;opacity:1;fill:url(#linearGradient97);fill-opacity:1;fill-rule:nonzero;stroke:url(#linearGradient100);-inkscape-stroke:none;filter:url(#filter90)"
         d="m 28.091797,55.25 c 0.0016,0.01957 0.0043,0.03902 0.0059,0.05859 0.06291,1.266966 0.111736,2.536596 -0.002,3.802734 -0.033,0.406466 -0.07668,0.812476 -0.125,1.216797 H 769.8457 v 7.621094 c 2.45747,-1.64238 4.96493,-3.192683 7.56641,-4.572266 v -4.171875 c 0,-2.146132 -2.694,-3.955078 -5.89258,-3.955078 z M 770.97656,76.625 c -0.3674,0.217919 -0.75667,0.406524 -1.13086,0.615234 v 14.066407 c 7.25631,-2.797224 9.717,-7.075999 1.13868,-14.681641 -0.003,1.5e-5 -0.005,-1.5e-5 -0.008,0 z"
         clip-path="url(#clipPath79-0)"
         transform="matrix(0.99815125,0,0,0.78680746,0.73441861,11.378036)" />
      <path
         id="path9-6"
         style="color:#000000;display:inline;opacity:1;fill:#152ec6;fill-rule:evenodd;-inkscape-stroke:none;filter:url(#filter27)"
         transform="matrix(0.94703553,0,0,0.83023841,17.971794,18.472055)"
         d="m 9.3523493,0.31991437 c -3.3821716,0 -6.2302259,2.84817993 -6.2302259,6.23035153 v 5.6536391 c 2.662243,-0.21229 5.3289107,-0.350431 7.9998926,-0.400688 V 8.3197784 H 796.0681 V 26.906608 c 0.66262,-0.01491 1.32554,-0.03486 1.98801,-0.04864 0.68848,-0.01432 1.36641,-0.01712 2.03377,-0.0069 1.37169,0.02049 2.69573,0.09254 3.97811,0.210767 V 6.5502659 c 0,-3.3821716 -2.84803,-6.23035153 -6.23023,-6.23035153 z M 3.1221234,192.45562 v 2.99474 c 0,3.3821 2.8480543,6.23035 6.2302259,6.23035 H 797.83776 c 3.3822,0 6.23023,-2.84825 6.23023,-6.23035 v -1.34798 c -1.54078,-0.0872 -3.1291,-0.23879 -4.77873,-0.47944 l -3.22116,-0.47017 v 0.52807 H 11.122016 v -0.82685 c -2.6678252,0.0376 -5.3361361,-0.1366 -7.9998926,-0.39837 z" />
    </g>
    <rect
       style="display:inline;opacity:0.25641;fill:url(#pattern105);fill-opacity:1;fill-rule:nonzero;stroke-width:0.961222"
       id="rect100"
       width="743.86646"
       height="31.339367"
       x="28.678476"
       y="24.834969"
       ry="1.1663305" />
    <rect
       style="display:inline;opacity:0.540793;fill:#49a0ee;fill-opacity:0.510101;fill-rule:nonzero;stroke-width:0.961222"
       id="rect100-5"
       width="743.86646"
       height="31.339367"
       x="27.996513"
       y="24.620768"
       ry="1.1663305" />
    <rect
       style="opacity:0.16317;fill:#49a0ee;fill-opacity:0.510101;fill-rule:nonzero;filter:url(#filter105)"
       id="rect105"
       width="745.0871"
       height="117.07317"
       x="27.595819"
       y="61.045296"
       ry="1.1663305" />
  </g>
</svg>
