<?xml version="1.0" encoding="UTF-8" standalone="no"?>
<!-- Created with Inkscape (http://www.inkscape.org/) -->

<svg
   width="153.61275mm"
   height="59.816441mm"
   viewBox="0 0 153.61275 59.816441"
   version="1.1"
   id="svg1"
   xml:space="preserve"
   xmlns:inkscape="http://www.inkscape.org/namespaces/inkscape"
   xmlns:sodipodi="http://sodipodi.sourceforge.net/DTD/sodipodi-0.dtd"
   xmlns="http://www.w3.org/2000/svg"
   xmlns:svg="http://www.w3.org/2000/svg"><sodipodi:namedview
     id="namedview1"
     pagecolor="#505050"
     bordercolor="#ffffff"
     borderopacity="1"
     inkscape:showpageshadow="0"
     inkscape:pageopacity="0"
     inkscape:pagecheckerboard="1"
     inkscape:deskcolor="#505050"
     inkscape:document-units="mm" /><defs
     id="defs1" /><g
     inkscape:label="Layer 1"
     inkscape:groupmode="layer"
     id="layer1"
     transform="translate(-42.676049,-21.184818)"><path
       id="path2"
       style="display:inline;fill:#000000;fill-opacity:1"
       d="m 158.03941,66.039844 c -4.21575,-0.326925 -10.09904,6.228198 -5.01468,7.209379 3.13016,-5.416438 13.86673,0.680628 6.73913,4.772319 H 57.211459 c -3.433618,2.07518 -11.935761,-3.204136 -6.352067,-5.117518 2.60523,-2.009019 3.459526,-3.307357 6.080765,-0.405659 6.435889,3.263314 2.600524,-5.642457 -1.305346,-6.04666 -4.96471,-1.393778 -10.044979,4.285004 -7.713225,9.064563 4.568529,3.208138 0.414106,5.746342 -0.505395,9.440768 2.11996,9.300685 -7.755701,0.917367 -9.950814,5.757788 -2.041858,-1.910713 -11.610094,0.05952 -6.813021,2.622579 0.980064,0.658114 2.164683,0.921655 3.327962,0.978234 5.402549,1.468301 9.964491,-2.291774 14.577922,-3.423563 4.033062,5.591096 13.378792,3.608613 14.519527,-3.296957 -4.221404,-7.869831 -4.630151,8.514531 -9.96735,4.911845 -8.082735,-3.102864 1.202862,-12.126306 6.379455,-13.12478 h 88.054578 c 5.06817,-0.610304 10.5008,1.975257 12.71136,6.699333 5.51037,4.634722 -6.86615,10.677717 -6.88175,3.358451 0.3904,-5.980064 -8.03171,-3.910063 -4.02042,0.9679 2.99817,4.995277 9.54898,5.081435 13.24208,0.709 4.7611,0.833672 10.43801,5.248474 16.41347,2.888196 7.82223,-1.96492 -1.22722,-6.001248 -4.74389,-3.572908 -1.23454,-4.96826 -9.46665,3.624619 -10.45673,-3.032373 2.34734,-4.040051 -4.93233,-6.524283 -2.2996,-9.23923 4.3346,-2.902472 2.66343,-9.689888 -1.80144,-11.522811 -0.49736,-0.36392 -1.06587,-0.551192 -1.66812,-0.597896 z M 41.676489,77.422095 c -0.763896,0.01028 -1.544167,0.212741 -2.237589,0.692464 -4.103473,0.07424 -4.786784,2.186116 -0.111104,2.53783 0.844896,0.690271 1.975626,0.65794 2.990515,0.58136 5.674204,-0.288536 2.668397,-3.856214 -0.641822,-3.811654 z m 127.355531,0.14211 c -2.04612,0.04985 -3.48077,0.767159 -2.76417,2.816882 3.21676,2.347895 7.07506,-0.575716 10.41745,-1.112076 -1.38092,-0.729364 -5.02254,-1.768904 -7.65328,-1.704806 z m 2.65876,12.235429 c 0.001,0.01574 0.005,0.02528 0.006,0.04082 -0.0142,-0.0105 -0.0291,-0.01959 -0.045,-0.02739 0.015,-0.0044 0.0236,-0.0091 0.0388,-0.01344 z M 36.761544,96.944418 c -1.438272,-0.08505 -2.889151,0.154582 -4.335136,0.930692 -6.354402,0.784889 -1.905515,4.42439 1.767851,3.92948 3.813571,-2.675531 4.694615,4.32337 8.688875,0.1881 7.038924,-2.393159 2.526168,7.98078 7.622274,10.02936 -2.245955,2.82365 -5.716618,9.89108 0.236678,12.59613 l 0.940511,0.59221 0.911056,0.31316 c 4.09985,2.31261 11.748077,-8.71308 5.155757,-6.33656 -3.563466,4.80951 -12.686218,-1.23103 -6.294189,-5.44308 31.039016,-0.10524 62.077779,-0.21049 93.116799,-0.31574 5.08063,0.4216 10.53709,-0.95566 15.36909,0.70848 6.46251,2.40985 -1.91306,9.59122 -4.56923,5.73092 -6.81342,-5.83101 -4.47933,6.82298 1.39423,5.31647 5.45261,1.5503 8.97453,-5.39163 6.50244,-9.70845 -5.84907,-3.03152 2.19767,-6.22661 0.56534,-10.94042 0.86278,-7.35123 7.73875,1.5837 9.81852,-2.6634 2.82111,0.30722 6.27571,0.3134 9.18342,-1.70739 -4.02118,-3.711082 -11.09327,-4.252476 -15.76803,-0.89504 -3.94142,5.34218 -5.68595,-1.882456 -10.06967,-1.373559 -5.10129,-3.056291 -13.01951,9.462969 -5.58415,8.221719 2.45578,-2.43021 3.14014,-10.404485 8.41447,-5.78518 5.28036,3.77615 -3.03261,10.06859 -6.85281,11.73727 -29.64713,-0.11235 -59.294724,-0.22509 -88.941859,-0.33744 -5.852716,1.16795 -10.288878,-1.23544 -13.47463,-6.14537 -3.984821,-3.7666 4.583845,-9.422792 6.832658,-5.23534 -1.370357,3.95772 5.871185,9.36478 5.571753,3.34244 -1.307151,-6.3019 -10.303574,-8.173792 -14.084928,-2.93988 -3.602337,-0.37757 -7.802274,-3.554442 -12.11709,-3.809582 z m 135.259956,4.478792 -0.008,0.0165 c -0.005,-4.6e-4 -0.009,-0.002 -0.0139,-0.002 0.008,-0.004 0.0144,-0.01 0.0217,-0.0145 z m -129.981725,9.10642 c -3.729707,0.0985 -8.395646,2.28718 -2.96261,3.1626 1.997871,1.11618 4.405779,1.21205 6.281787,-0.34726 0.819766,-2.18082 -1.081353,-2.87445 -3.319177,-2.81534 z m 127.909505,0.33694 c -2.77704,-0.13306 -5.24045,0.52517 -3.21117,3.04994 0.80436,1.42315 15.63168,-1.90444 7.64604,-2.18747 -0.98929,-0.4178 -2.76865,-0.78264 -4.43487,-0.86247 z m -15.67708,9.94874 c 0.006,0.0431 0.0211,0.0675 0.0279,0.10904 -0.0363,-0.0198 -0.0726,-0.0316 -0.10904,-0.0362 0.0321,-0.0246 0.0469,-0.0482 0.0811,-0.0729 z"
       transform="translate(13.452962,-44.843205)" /></g></svg>
